<svg width="61" height="60" viewBox="0 0 61 60" fill="none" xmlns="http://www.w3.org/2000/svg">
<path fill-rule="evenodd" clip-rule="evenodd" d="M15.1259 34.9634L15.1267 34.9641C17.8585 37.6505 21.4771 39.1249 25.3422 39.1249C29.2074 39.1249 32.826 37.6505 35.5578 34.9641L35.5586 34.9634C38.2923 32.2775 39.7918 28.7168 39.7918 24.9155C39.7918 21.1171 38.2924 17.5563 35.5586 14.8703L35.557 14.8688C32.8255 12.1803 29.2073 10.706 25.3422 10.706C21.4772 10.706 17.859 12.1803 15.1274 14.8688L15.1259 14.8703C12.3921 17.5563 10.8926 21.1171 10.8926 24.9155C10.8926 28.7168 12.3922 32.2775 15.1259 34.9634ZM46.3696 38.2374L59.228 50.882C60.6751 52.305 60.6747 54.6123 59.2271 56.0348L56.9867 58.2364C55.5398 59.6582 53.1948 59.6579 51.7483 58.2357L38.89 45.5935C34.8874 48.1481 30.2215 49.5284 25.3422 49.5284C18.6614 49.5284 12.3675 46.9656 7.64563 42.3163C2.92215 37.6738 0.313049 31.4854 0.313049 24.9155C0.313049 18.3453 2.92229 12.1567 7.646 7.5142C12.3678 2.86522 18.6616 0.302551 25.3422 0.302551C32.0229 0.302551 38.3167 2.86525 43.0385 7.51424C47.7622 12.1568 50.3714 18.3453 50.3714 24.9155C50.3714 29.7143 48.9653 34.3022 46.3696 38.2374Z" fill="#5865F2"/>
<path fill-rule="evenodd" clip-rule="evenodd" d="M16.1372 24.8306C16.1372 29.3672 19.6235 33.085 24.0493 33.4235C24.4124 33.4513 24.7087 33.1518 24.7087 32.7857V16.8756C24.7087 16.5095 24.4124 16.21 24.0493 16.2378C19.6235 16.5763 16.1372 20.2941 16.1372 24.8306Z" fill="#5865F2"/>
</svg>
