<svg width="896" height="78" viewBox="0 0 896 78" fill="none" xmlns="http://www.w3.org/2000/svg">
<path d="M489.613 3.44483V61.7869H470.175V51.1719C468.532 55.1655 466.039 58.21 462.684 60.2936C459.329 62.3657 455.181 63.4075 450.262 63.4075C445.865 63.4075 442.034 62.3194 438.759 60.1316C435.483 57.9437 432.956 54.9456 431.176 51.1372C429.408 47.3287 428.513 43.0225 428.513 38.207C428.456 33.241 429.397 28.7843 431.335 24.8369C433.262 20.8896 435.993 17.8104 439.507 15.5994C443.02 13.3884 447.032 12.2772 451.532 12.2772C460.791 12.2772 467.002 16.3866 470.175 24.5938V3.44483H489.613ZM467.274 45.3029C469.257 43.3351 470.243 40.7768 470.243 37.6513C470.243 34.6301 469.28 32.1644 467.353 30.2775C465.427 28.3907 462.786 27.4415 459.465 27.4415C456.19 27.4415 453.572 28.4023 451.611 30.3239C449.65 32.2454 448.675 34.7342 448.675 37.8134C448.675 40.8926 449.65 43.4045 451.611 45.3493C453.572 47.294 456.156 48.2664 459.386 48.2664C462.661 48.2548 465.291 47.2708 467.274 45.3029Z" fill="#5865F2"/>
<path d="M425.034 15.2751V32.7777C423.017 31.4233 420.41 30.7519 417.18 30.7519C412.953 30.7519 409.689 32.06 407.422 34.6761C405.144 37.2923 404.011 41.3669 404.011 46.877V61.7867H384.573V14.3837H403.614V29.4554C404.668 23.9454 406.379 19.8822 408.737 17.2545C411.083 14.6384 414.12 13.3303 417.815 13.3303C420.614 13.3303 423.017 13.9786 425.034 15.2751Z" fill="#5865F2"/>
<path d="M330.908 60.0043C326.329 57.7354 322.839 54.6331 320.436 50.6858C318.033 46.7384 316.82 42.3396 316.82 37.4778C316.82 32.6159 318.022 28.275 320.436 24.4665C322.85 20.6581 326.318 17.6715 330.874 15.5069C335.419 13.3422 340.848 12.2656 347.138 12.2656C353.428 12.2656 358.857 13.3422 363.402 15.5069C367.947 17.6715 371.415 20.6349 373.795 24.4202C376.175 28.2055 377.365 32.5465 377.365 37.4662C377.365 42.328 376.175 46.7268 373.795 50.6742C371.415 54.6215 367.935 57.7238 363.356 59.9927C358.778 62.2616 353.371 63.396 347.127 63.396C340.882 63.396 335.476 62.2731 330.908 60.0043ZM355.015 45.6271C356.942 43.6592 357.916 41.0547 357.916 37.8135C357.916 34.5722 356.953 31.9908 355.015 30.0808C353.088 28.1592 350.459 27.1984 347.127 27.1984C343.738 27.1984 341.086 28.1592 339.148 30.0808C337.221 32.0024 336.258 34.5722 336.258 37.8135C336.258 41.0547 337.221 43.6592 339.148 45.6271C341.074 47.595 343.738 48.5905 347.127 48.5905C350.459 48.579 353.088 47.595 355.015 45.6271Z" fill="#5865F2"/>
<path d="M274.535 60.0036C269.99 57.7347 266.556 54.6556 264.266 50.7661C261.977 46.8766 260.821 42.501 260.821 37.6391C260.821 32.7773 262.011 28.4248 264.391 24.5932C266.771 20.7616 270.262 17.7519 274.863 15.5641C279.465 13.3762 284.962 12.2881 291.365 12.2881C299.299 12.2881 305.883 13.9897 311.12 17.393V32.2216C309.272 30.9252 307.119 29.8718 304.659 29.0615C302.2 28.2511 299.571 27.846 296.76 27.846C291.841 27.846 287.999 28.7605 285.222 30.601C282.445 32.4416 281.051 34.8378 281.051 37.8128C281.051 40.7299 282.4 43.1145 285.098 44.9898C287.795 46.8535 291.705 47.7911 296.839 47.7911C299.48 47.7911 302.087 47.3975 304.659 46.622C307.221 45.8348 309.431 44.874 311.278 43.7396V58.082C305.464 61.6474 298.721 63.43 291.048 63.43C284.588 63.4069 279.079 62.2725 274.535 60.0036Z" fill="#5865F2"/>
<path d="M218.364 61.7058C214.08 60.5714 210.215 58.9276 206.781 56.763V43.3119C209.377 45.3608 212.856 47.0509 217.22 48.3821C221.583 49.7017 225.799 50.3615 229.879 50.3615C231.783 50.3615 233.223 50.1069 234.197 49.5975C235.172 49.0882 235.659 48.4747 235.659 47.7686C235.659 46.9582 235.399 46.2869 234.866 45.7428C234.333 45.1987 233.302 44.7473 231.772 44.3653L222.252 42.1774C216.8 40.8809 212.935 39.0867 210.635 36.7831C208.334 34.4911 207.189 31.4814 207.189 27.754C207.189 24.6169 208.187 21.8966 210.204 19.5699C212.21 17.2431 215.066 15.4489 218.772 14.1871C222.478 12.9138 226.808 12.2771 231.783 12.2771C236.226 12.2771 240.295 12.7633 244.001 13.7357C247.707 14.708 250.767 15.9466 253.204 17.4631V30.1849C250.711 28.6685 247.854 27.4762 244.59 26.5732C241.338 25.6819 237.994 25.242 234.549 25.242C229.573 25.242 227.091 26.1102 227.091 27.835C227.091 28.6453 227.477 29.2473 228.247 29.6524C229.018 30.0576 230.435 30.4743 232.486 30.9142L240.42 32.3727C245.599 33.2872 249.464 34.8963 252.003 37.1883C254.541 39.4803 255.811 42.872 255.811 47.3634C255.811 52.2831 253.714 56.1842 249.509 59.0781C245.304 61.9721 239.343 63.4191 231.613 63.4191C227.069 63.4075 222.648 62.8403 218.364 61.7058Z" fill="#5865F2"/>
<path d="M188.42 19.4304C193.772 19.4304 198.11 15.4501 198.11 10.5401C198.11 5.6302 193.772 1.64992 188.42 1.64992C183.068 1.64992 178.73 5.6302 178.73 10.5401C178.73 15.4501 183.068 19.4304 188.42 19.4304Z" fill="#5865F2"/>
<path d="M178.721 25.5542C184.66 28.1703 192.026 28.2861 198.101 25.5542V62.0412H178.721V25.5542Z" fill="#5865F2"/>
<path d="M106.738 5.06514H137.679C145.136 5.06514 151.438 6.25745 156.606 8.63049C161.763 11.0035 165.628 14.3142 168.189 18.551C170.75 22.7877 172.042 27.638 172.042 33.1018C172.042 38.4498 170.705 43.3001 168.03 47.641C165.355 51.9935 161.287 55.4315 155.813 57.9666C150.338 60.5017 143.561 61.7751 135.457 61.7751H106.738V5.06514ZM135.14 47.3632C140.161 47.3632 144.026 46.0783 146.723 43.52C149.42 40.9502 150.769 37.4543 150.769 33.0207C150.769 28.9113 149.568 25.6354 147.165 23.1813C144.762 20.7272 141.124 19.4886 136.262 19.4886H126.583V47.3632H135.14Z" fill="#5865F2"/>
<path d="M539.667 3.44483H519.667V61.8866H571.107V45.5666H539.667V3.44483Z" fill="#5865F2"/>
<path d="M604.372 63.4865C623.812 63.4865 634.852 52.2066 634.852 37.8866C634.852 23.4866 623.812 13.0065 604.372 13.0065C584.932 13.0065 573.812 23.5665 573.812 37.8866C573.812 52.1266 584.932 63.4865 604.372 63.4865ZM604.372 48.8465C597.492 48.8465 593.412 44.5266 593.412 38.2066C593.412 31.8865 597.492 27.7265 604.372 27.7265C611.172 27.7265 615.252 31.8865 615.252 38.2066C615.252 44.5266 611.172 48.8465 604.372 48.8465Z" fill="#5865F2"/>
<path d="M669.763 63.4865C689.203 63.4865 700.243 52.2066 700.243 37.8866C700.243 23.4866 689.203 13.0065 669.763 13.0065C650.323 13.0065 639.203 23.5665 639.203 37.8866C639.203 52.1266 650.323 63.4865 669.763 63.4865ZM669.763 48.8465C662.883 48.8465 658.803 44.5266 658.803 38.2066C658.803 31.8865 662.883 27.7265 669.763 27.7265C676.563 27.7265 680.643 31.8865 680.643 38.2066C680.643 44.5266 676.563 48.8465 669.763 48.8465Z" fill="#5865F2"/>
<path d="M745.874 34.7665L764.114 15.0865H742.034L726.513 32.5266V4.28655H706.914V61.8866H726.513V37.3265L743.154 61.8866H765.554L745.874 34.7665Z" fill="#5865F2"/>
<path d="M805.832 38.1265C805.832 45.2466 802.632 48.9266 796.472 48.9266C790.472 48.9266 787.752 45.6466 787.752 38.5266V15.0865H768.152V43.3266C768.152 56.2866 774.792 63.5666 787.352 63.5666C796.232 63.5666 802.712 59.6466 805.832 52.2066V61.8866H825.432V15.0865H805.832V38.1265Z" fill="#5865F2"/>
<path d="M874.013 13.0065C863.293 13.0065 856.574 17.8066 853.934 26.5266V15.0865H834.414V77.0865H853.934V52.4465C857.534 59.9665 864.253 63.4865 873.453 63.4865C886.653 63.4865 895.934 53.2466 895.934 38.1265C895.934 23.8865 887.613 13.0065 874.013 13.0065ZM864.574 48.5266C857.854 48.5266 853.854 44.2865 853.854 38.3666C853.854 32.3665 858.014 27.9665 864.734 27.9665C871.374 27.9665 875.534 32.2866 875.534 38.2066C875.534 44.2065 871.294 48.5266 864.574 48.5266Z" fill="#5865F2"/>
<path fill-rule="evenodd" clip-rule="evenodd" d="M18.6054 43.395L18.6063 43.396C22.041 46.7739 26.582 48.6367 31.4258 48.6527C36.2697 48.6687 40.7984 46.8359 44.2108 43.4807L44.2118 43.4797C47.6265 40.1251 49.491 35.669 49.4753 30.9051C49.4595 26.145 47.5657 21.6764 44.1285 18.299L44.1265 18.2971C40.6922 14.9164 36.1517 13.0538 31.308 13.0378C26.4643 13.0218 21.9361 14.8544 18.524 18.2124L18.5221 18.2143C15.1072 21.5691 13.2428 26.0252 13.2586 30.7854C13.2743 35.5492 15.1684 40.0177 18.6054 43.395ZM57.7737 47.6275L73.9405 63.5272C75.7598 65.3165 75.7689 68.2079 73.9606 69.9847L71.1621 72.7344C69.3547 74.5103 66.416 74.5002 64.5973 72.7119L48.4308 56.8153C43.4253 60.0001 37.5837 61.7105 31.469 61.6903C23.0965 61.6626 15.1982 58.4248 9.26155 52.5788C3.3228 46.7412 0.027404 38.975 0.000170086 30.7415C-0.0270645 22.5077 3.2172 14.763 9.11775 8.96452C15.0159 3.15795 22.8927 -0.0275136 31.2649 0.00017905C39.6371 0.0278717 47.5352 3.26555 53.4719 9.11128C59.4109 14.9489 62.7064 22.7153 62.7337 30.949C62.7536 36.9629 61.0104 42.7067 57.7737 47.6275Z" fill="#5865F2"/>
<path fill-rule="evenodd" clip-rule="evenodd" d="M19.8308 30.7008C19.8496 36.386 24.2341 41.0597 29.7819 41.5022C30.2371 41.5385 30.6071 41.1645 30.6055 40.7057L30.5396 20.767C30.5381 20.3082 30.1656 19.9317 29.7107 19.965C24.1656 20.3708 19.812 25.0156 19.8308 30.7008Z" fill="#5865F2"/>
</svg>
