<svg width="60" height="58" viewBox="0 0 60 58" fill="none" xmlns="http://www.w3.org/2000/svg">
<path fill-rule="evenodd" clip-rule="evenodd" d="M59.9875 29.1123C59.9875 32.0706 55.1885 34.28 54.2887 36.9387C53.3889 39.5974 55.9383 44.428 54.2887 46.6374C52.639 48.8468 47.3901 47.948 45.0656 49.6331C42.7411 51.3183 42.1037 56.5234 39.2918 57.4595C36.4799 58.3957 33.0306 54.4638 30.0312 54.4638C27.0319 54.4638 23.4701 58.2085 20.7707 57.4595C18.0712 56.7106 17.3214 51.3183 14.9969 49.6331C12.6724 47.948 7.49844 48.9591 5.7738 46.6374C4.04916 44.3157 6.63612 39.7472 5.7738 36.9387C4.91148 34.1302 0 32.0706 0 29.1123C0 26.154 4.799 23.9446 5.69881 21.2859C6.59862 18.6272 4.04916 13.7966 5.69881 11.5872C7.34847 9.37783 12.6349 10.2766 14.9969 8.59145C17.3589 6.90634 17.9213 1.70124 20.7332 0.652728C23.5451 -0.395783 26.9944 3.76081 29.9937 3.76081C32.9931 3.76081 36.5549 0.0161321 39.2543 0.765068C41.9538 1.514 42.6661 6.90634 44.9906 8.59145C47.3151 10.2766 52.4891 9.26549 54.2137 11.5872C55.9383 13.9089 53.3514 18.4774 54.2137 21.2859C55.076 24.0944 59.9875 26.154 59.9875 29.1123Z" fill="#4F545C"/>
<path d="M30.3166 10.2683L19 21.5398V36.7174L30.3166 47.9889L41.6324 36.7174V21.5398L30.3166 10.2683ZM37.8229 34.7086L30.3166 42.9669L22.8094 35.4898V23.1022L30.3166 15.6251L37.8229 23.1022V34.7086Z" fill="white"/>
<path d="M30.3166 37.6102L34.0135 33.8158V24.6646L30.3166 20.9819L26.6188 24.6646V33.8158L30.3166 37.6102Z" fill="white"/>
</svg>
