<svg width="57" height="56" viewBox="0 0 57 56" fill="none" xmlns="http://www.w3.org/2000/svg">
<path d="M9.17246 9.59915C9.17246 9.59915 9.86682 8.60547 10.1548 8.16526C10.4428 7.72505 9.4093 6.68503 9.00829 6.35552C8.60728 6.02601 7.97482 6.19076 7.97482 6.19076C2.92858 8.33002 0.40411 12.7192 0.0596202 13.5971C-0.28487 14.4749 0.936993 15.4325 1.83859 15.9011C2.25305 16.1173 2.91243 15.6385 3.31882 15.2832L3.45608 15.1494L3.66869 14.9434L3.67138 14.9409L17.3998 28.0209L22.7233 22.929L9.15362 9.61718L9.17246 9.59915Z" fill="#5865F2"/>
<path d="M41.6047 23.3971L42.3286 22.7381L48.8336 28.901C48.8793 28.9396 48.9278 28.9551 48.9708 28.9551C49.0946 28.9551 49.1969 28.8469 49.1969 28.8469C49.1969 28.8469 56.3989 22.0121 56.4231 21.989C56.6357 21.7882 56.4231 21.6775 56.4231 21.6775L50.8682 16.3281L50.8602 16.3358L50.0985 15.6227L50.5237 15.2314L51.4334 15.3318L51.2612 14.1785L51.4899 13.9571L51.1481 12.2941C49.9613 10.6852 46.7101 8.10827 46.7101 8.10827L45.0092 7.8148L44.837 8.03362L43.5559 7.85084L43.6797 8.89601L43.7604 8.97324L43.381 9.33879L41.2817 7.37459C41.2817 7.37459 29.1008 1.04693 28.4522 0.753457C28.0861 0.591276 27.817 0.483154 27.5586 0.483154C27.3595 0.483154 27.1657 0.547512 26.9423 0.699397C26.4256 1.04693 26.7297 1.74714 26.7297 1.74714L34.3031 15.1336L35.8183 16.57L35.1697 17.1905L33.9586 17.0308L34.1443 18.179L33.7944 18.5136L33.7325 18.4544C33.676 18.4004 33.598 18.3721 33.5226 18.3721C33.4473 18.3721 33.3719 18.4004 33.3127 18.4544C33.197 18.5651 33.197 18.7453 33.3127 18.856L33.3746 18.9152L33.2077 19.0774L33.1647 19.0337C33.1055 18.9796 33.0301 18.9513 32.9547 18.9513C32.8767 18.9513 32.8013 18.9796 32.7448 19.0337C32.6291 19.1444 32.6291 19.3246 32.7448 19.4353L32.7906 19.479L29.604 22.5424L29.5314 22.4729C29.4722 22.4189 29.3968 22.3906 29.3215 22.3906C29.2461 22.3906 29.1707 22.4189 29.1115 22.4729C28.9958 22.5836 28.9958 22.7638 29.1115 22.8745L29.1869 22.944L29.0173 23.1062L28.9608 23.0547C28.9043 22.9981 28.8262 22.9698 28.7536 22.9698C28.6755 22.9698 28.6002 22.9981 28.541 23.0547C28.4279 23.1654 28.4279 23.3431 28.541 23.4538L28.5975 23.5078L28.183 23.9094L28.1265 24.4191L28.3445 24.6328L28.3391 24.6354L28.0754 24.8928L10.8805 41.3375L10.6571 41.1599L9.94389 41.2577L9.54019 41.649L9.51327 41.6233C9.45407 41.5666 9.37871 41.5383 9.30335 41.5383C9.22799 41.5383 9.14995 41.5666 9.09343 41.6233C8.9777 41.734 8.9777 41.9116 9.09343 42.0223L9.12572 42.0532L8.95886 42.2179L8.94271 42.2025C8.8862 42.1459 8.80815 42.1175 8.73279 42.1175C8.65743 42.1175 8.58207 42.1459 8.52287 42.2025C8.40983 42.3132 8.40983 42.4908 8.52287 42.6015L8.5417 42.6221L5.39554 45.683L5.33095 45.6212C5.27174 45.5645 5.19907 45.5388 5.12103 45.5388C5.04567 45.5388 4.97031 45.5645 4.9111 45.6212C4.79537 45.7319 4.79537 45.9121 4.9111 46.0228L4.98108 46.0871L4.81421 46.2493L4.76308 46.2004C4.70387 46.1463 4.62851 46.118 4.55046 46.118C4.4778 46.118 4.39975 46.1463 4.34323 46.2004C4.2275 46.3111 4.2275 46.4913 4.34323 46.602L4.39706 46.6561L4.16291 46.8852L2.94374 46.6766L3.03525 47.9792L2.65039 48.3551L2.98411 50.1108C2.98411 50.1108 3.49546 51.6399 4.54777 52.6542C5.56779 53.6376 7.12337 54.1087 7.19066 54.1576L8.9481 54.4511L9.3814 54.0443L10.5925 54.2323L10.3933 53.0867L10.762 52.7417L10.9316 52.9039C10.9881 52.958 11.0635 52.9863 11.1388 52.9863C11.2142 52.9863 11.2922 52.958 11.3488 52.9039C11.4645 52.7906 11.4645 52.613 11.3488 52.5023L11.1819 52.3427L11.3541 52.1831L11.4995 52.3221C11.556 52.3788 11.634 52.4071 11.7094 52.4071C11.7848 52.4071 11.8601 52.3788 11.9193 52.3221C12.035 52.2114 12.035 52.0338 11.9193 51.9231L11.7767 51.7841L14.9713 48.7696L15.1112 48.9034C15.1678 48.9601 15.2458 48.9858 15.3212 48.9858C15.3965 48.9858 15.4719 48.9601 15.5311 48.9034C15.6441 48.7927 15.6441 48.6125 15.5311 48.5018L15.3938 48.3731L15.5634 48.2109L15.6818 48.3242C15.7383 48.3783 15.8137 48.4066 15.889 48.4066C15.9671 48.4066 16.0424 48.3783 16.099 48.3242C16.2147 48.2135 16.2147 48.0333 16.099 47.9226L15.9832 47.8119L16.3412 47.4773L16.4704 46.7436L16.2793 46.5608L16.282 46.5582L16.6291 46.2287L33.7083 29.887L33.7002 29.8715L34.034 30.201L34.5695 30.1444L35.0513 29.681L35.1293 29.7557C35.1885 29.8097 35.2639 29.8381 35.3393 29.8381C35.4146 29.8381 35.4927 29.8097 35.5492 29.7557C35.6649 29.645 35.6649 29.4648 35.5492 29.3541L35.4711 29.2794L35.6407 29.1198L35.6999 29.1765C35.7564 29.2305 35.8318 29.2588 35.9098 29.2588C35.9852 29.2588 36.0605 29.2305 36.1171 29.1765C36.2328 29.0658 36.2328 28.8856 36.1171 28.7749L36.0578 28.7157L39.2498 25.6574L39.3332 25.7372C39.3897 25.7912 39.4651 25.8196 39.5404 25.8196C39.6185 25.8196 39.6938 25.7912 39.7503 25.7372C39.8661 25.6265 39.8661 25.4463 39.7503 25.3356L39.6669 25.2558L39.8365 25.0936L39.9011 25.158C39.9603 25.212 40.0356 25.2403 40.111 25.2403C40.1863 25.2403 40.2617 25.212 40.3209 25.158C40.4366 25.0447 40.4366 24.8671 40.3209 24.7564L40.2563 24.692L40.6116 24.3522L41.7985 24.5298L41.6047 23.3971Z" fill="#5865F2"/>
<path d="M43.9767 41.8677L36.406 36.3792L35.0576 35.0509L29.8337 40.0476L31.1471 41.2473L36.0803 48.324L42.7333 55.2927L50.4009 48.4502L43.9767 41.8677Z" fill="#5865F2"/>
</svg>
