<svg width="51" height="50" viewBox="0 0 51 50" fill="none" xmlns="http://www.w3.org/2000/svg">
<path d="M25.0039 22.1012C23.4789 22.1012 22.2539 23.2978 22.2539 24.7875C22.2539 26.2771 23.4789 27.4737 25.0039 27.4737C26.5289 27.4737 27.7539 26.2771 27.7539 24.7875C27.7539 23.2978 26.5289 22.1012 25.0039 22.1012ZM25.0039 0.366943C11.2039 0.366943 0.00390625 11.3073 0.00390625 24.7875C0.00390625 38.2676 11.2039 49.208 25.0039 49.208C38.8039 49.208 50.0039 38.2676 50.0039 24.7875C50.0039 11.3073 38.8039 0.366943 25.0039 0.366943ZM30.4789 30.1356L10.0039 39.4398L19.5289 19.4394L40.0039 10.1352L30.4789 30.1356Z" fill="#3BA565"/>
</svg>
