<svg width="51" height="47" viewBox="0 0 51 47" fill="none" xmlns="http://www.w3.org/2000/svg">
<path fill-rule="evenodd" clip-rule="evenodd" d="M47.2145 14.8406C48.0796 14.3206 49.1773 14.3731 49.9899 14.9756C50.7999 15.5806 51.1696 16.6106 50.9274 17.5906L45.9271 37.5908C45.6474 38.7057 44.6473 39.4857 43.4998 39.4857H8.49969C7.35219 39.4857 6.35218 38.7031 6.0722 37.5908L1.07217 17.5906C0.8297 16.6106 1.19967 15.5806 2.00967 14.9756C2.8247 14.3756 3.9197 14.3231 4.78719 14.8406L15.2447 21.1156L23.9222 8.09812C23.9815 8.00921 24.0641 7.95045 24.1471 7.89153C24.197 7.85602 24.2471 7.82044 24.2922 7.77814L21.8847 5.36812C21.3997 4.88313 21.3997 4.08562 21.8847 3.60064L25.1172 0.368135C25.6022 -0.116852 26.3997 -0.116852 26.8847 0.368135L30.1172 3.60064C30.6022 4.08562 30.6022 4.88313 30.1172 5.36812L27.7097 7.77814C27.7548 7.8213 27.8058 7.85749 27.8569 7.89375C27.9389 7.95195 28.0211 8.01034 28.0797 8.09812L36.7573 21.1156L47.2145 14.8406ZM6.00001 41.9854H45.9999V46.9857H6.00001V41.9854Z" fill="#ED9F2E"/>
</svg>
