<svg width="60" height="58" viewBox="0 0 60 58" fill="none" xmlns="http://www.w3.org/2000/svg">
<path fill-rule="evenodd" clip-rule="evenodd" d="M59.9875 29.1123C59.9875 32.0706 55.1885 34.28 54.2887 36.9387C53.3889 39.5974 55.9383 44.428 54.2887 46.6374C52.639 48.8468 47.3901 47.948 45.0656 49.6331C42.7411 51.3183 42.1037 56.5234 39.2918 57.4595C36.4799 58.3957 33.0306 54.4638 30.0312 54.4638C27.0319 54.4638 23.4701 58.2085 20.7707 57.4595C18.0712 56.7106 17.3214 51.3183 14.9969 49.6331C12.6724 47.948 7.49844 48.9591 5.7738 46.6374C4.04916 44.3157 6.63612 39.7472 5.7738 36.9387C4.91148 34.1302 0 32.0706 0 29.1123C0 26.154 4.799 23.9446 5.69881 21.2859C6.59862 18.6272 4.04916 13.7966 5.69881 11.5872C7.34847 9.37783 12.6349 10.2766 14.9969 8.59145C17.3589 6.90634 17.9213 1.70124 20.7332 0.652728C23.5451 -0.395783 26.9944 3.76081 29.9937 3.76081C32.9931 3.76081 36.5549 0.0161321 39.2543 0.765068C41.9538 1.514 42.6661 6.90634 44.9906 8.59145C47.3151 10.2766 52.4891 9.26549 54.2137 11.5872C55.9383 13.9089 53.3514 18.4774 54.2137 21.2859C55.076 24.0944 59.9875 26.154 59.9875 29.1123Z" fill="#5865F2"/>
<path d="M49.8427 28.9368C49.8427 30.4311 49.1026 31.9256 47.9923 32.6728L36.5207 40.1447C34.3003 41.639 32.0799 42.3862 29.4895 42.3862C28.3793 42.3862 27.6393 42.3863 26.529 42.0126C23.5687 41.2655 21.3483 39.7711 19.498 37.5295C19.1279 36.7823 19.498 36.0351 19.8681 35.6616L25.0488 32.2992C25.4189 31.9256 26.159 31.9256 26.529 32.2992C27.2692 32.6728 28.0093 33.0464 28.3793 33.4199C29.8596 33.4199 30.9698 33.4199 32.0799 32.6728L34.6703 31.1783L42.0714 25.948L43.1817 25.2007C45.0319 24.08 47.9923 24.4536 49.1026 26.3216C49.8427 27.4424 49.8427 28.1895 49.8427 28.9368Z" fill="white"/>
<path d="M40.6073 22.1572L35.3886 25.5396C34.6431 25.9154 34.2703 25.9154 33.5247 25.5396C33.152 25.1638 32.4065 24.788 32.0337 24.4121C30.5426 24.0363 29.4244 24.4121 28.306 25.1638L26.4422 26.2912L17.1231 32.6804C14.8865 33.8078 12.2771 33.432 11.1588 31.1769C9.66773 29.2978 10.4133 26.6671 12.2771 25.1638L23.4601 17.6473C26.4422 15.7681 30.1698 15.0165 33.5247 15.7681C36.5069 16.5198 38.7435 18.0231 40.6073 20.278C41.3529 21.0297 40.9801 21.7814 40.6073 22.1572Z" fill="white"/>
</svg>
