<svg width="48" height="47" viewBox="0 0 48 47" fill="none" xmlns="http://www.w3.org/2000/svg">
<path fill-rule="evenodd" clip-rule="evenodd" d="M20.475 27.0082C21.5 27.9832 21.5 29.5832 20.475 30.5582C19.5 31.5332 17.9 31.5332 16.925 30.5582C14.5835 28.2131 13.2683 25.0346 13.2683 21.7207C13.2683 18.4067 14.5835 15.2283 16.925 12.8832L25.775 4.03319C28.1201 1.69164 31.2986 0.376465 34.6125 0.376465C37.9265 0.376465 41.105 1.69164 43.45 4.03319C45.7916 6.37826 47.1068 9.55675 47.1068 12.8707C47.1068 16.1846 45.7916 19.3631 43.45 21.7082L39.725 25.4332C39.75 23.3832 39.425 21.3332 38.725 19.3832L39.9 18.1832C40.6009 17.4899 41.1573 16.6645 41.537 15.7548C41.9167 14.845 42.1122 13.869 42.1122 12.8832C42.1122 11.8974 41.9167 10.9214 41.537 10.0116C41.1573 9.10187 40.6009 8.27647 39.9 7.58319C39.2068 6.88235 38.3814 6.32596 37.4716 5.94624C36.5619 5.56652 35.5858 5.371 34.6 5.371C33.6142 5.371 32.6382 5.56652 31.7285 5.94624C30.8187 6.32596 29.9933 6.88235 29.3 7.58319L20.475 16.4082C19.7742 17.1015 19.2178 17.9269 18.8381 18.8366C18.4584 19.7464 18.2628 20.7224 18.2628 21.7082C18.2628 22.694 18.4584 23.67 18.8381 24.5798C19.2178 25.4895 19.7742 26.3149 20.475 27.0082ZM27.525 16.4082C28.5 15.4332 30.1 15.4332 31.075 16.4082C33.4166 18.7533 34.7318 21.9317 34.7318 25.2457C34.7318 28.5596 33.4166 31.7381 31.075 34.0832L22.225 42.9332C19.88 45.2747 16.7015 46.5899 13.3875 46.5899C10.0736 46.5899 6.89511 45.2747 4.55004 42.9332C2.20849 40.5881 0.893311 37.4096 0.893311 34.0957C0.893311 30.7818 2.20849 27.6033 4.55004 25.2582L8.27504 21.5332C8.25004 23.5832 8.57504 25.6332 9.27504 27.6082L8.10004 28.7832C7.39919 29.4765 6.84281 30.3019 6.46309 31.2116C6.08337 32.1214 5.88785 33.0974 5.88785 34.0832C5.88785 35.069 6.08337 36.045 6.46309 36.9548C6.84281 37.8645 7.39919 38.6899 8.10004 39.3832C8.79332 40.084 9.61872 40.6404 10.5285 41.0201C11.4382 41.3999 12.4142 41.5954 13.4 41.5954C14.3858 41.5954 15.3619 41.3999 16.2716 41.0201C17.1814 40.6404 18.0068 40.084 18.7 39.3832L27.525 30.5582C28.2259 29.8649 28.7823 29.0395 29.162 28.1298C29.5417 27.22 29.7372 26.244 29.7372 25.2582C29.7372 24.2724 29.5417 23.2964 29.162 22.3866C28.7823 21.4769 28.2259 20.6515 27.525 19.9582C27.2822 19.7307 27.0887 19.4558 26.9564 19.1505C26.8241 18.8451 26.7558 18.5159 26.7558 18.1832C26.7558 17.8504 26.8241 17.5212 26.9564 17.2159C27.0887 16.9106 27.2822 16.6357 27.525 16.4082Z" fill="#D9D9D9"/>
<path fill-rule="evenodd" clip-rule="evenodd" d="M18.8381 24.5798C19.2178 25.4895 19.7742 26.3149 20.475 27.0082C21.5 27.9832 21.5 29.5832 20.475 30.5582C19.5 31.5332 17.9 31.5332 16.925 30.5582C14.5835 28.2131 13.2683 25.0346 13.2683 21.7207C13.2683 18.4067 14.5835 15.2283 16.925 12.8832L25.775 4.03319C28.1201 1.69164 31.2986 0.376465 34.6125 0.376465C37.9265 0.376465 41.105 1.69164 43.45 4.03319C45.7916 6.37826 47.1068 9.55675 47.1068 12.8707C47.1068 16.1846 45.7916 19.3631 43.45 21.7082L39.725 25.4332C39.75 23.3832 39.425 21.3332 38.725 19.3832L39.9 18.1832C40.6009 17.4899 41.1573 16.6645 41.537 15.7548C41.9167 14.845 42.1122 13.869 42.1122 12.8832C42.1122 11.8974 41.9167 10.9214 41.537 10.0116C41.1573 9.10187 40.6009 8.27647 39.9 7.58319C39.2068 6.88235 38.3814 6.32596 37.4716 5.94624C36.5619 5.56652 35.5858 5.371 34.6 5.371C33.6142 5.371 32.6382 5.56652 31.7285 5.94624C30.8187 6.32596 29.9933 6.88235 29.3 7.58319L20.475 16.4082C19.7742 17.1015 19.2178 17.9269 18.8381 18.8366C18.4584 19.7464 18.2628 20.7224 18.2628 21.7082C18.2628 22.694 18.4584 23.67 18.8381 24.5798ZM27.525 16.4082C28.5 15.4332 30.1 15.4332 31.075 16.4082C33.4166 18.7533 34.7318 21.9317 34.7318 25.2457C34.7318 28.5596 33.4166 31.7381 31.075 34.0832L22.225 42.9332C19.88 45.2747 16.7015 46.5899 13.3875 46.5899C10.0736 46.5899 6.89511 45.2747 4.55004 42.9332C2.20849 40.5881 0.893311 37.4096 0.893311 34.0957C0.893311 30.7818 2.20849 27.6033 4.55004 25.2582L8.27504 21.5332C8.25004 23.5832 8.57504 25.6332 9.27504 27.6082L8.10004 28.7832C7.39919 29.4765 6.84281 30.3019 6.46309 31.2116C6.08337 32.1214 5.88785 33.0974 5.88785 34.0832C5.88785 35.069 6.08337 36.045 6.46309 36.9548C6.84281 37.8645 7.39919 38.6899 8.10004 39.3832C8.79332 40.084 9.61872 40.6404 10.5285 41.0201C11.4382 41.3999 12.4142 41.5954 13.4 41.5954C14.3858 41.5954 15.3619 41.3999 16.2716 41.0201C17.1814 40.6404 18.0068 40.084 18.7 39.3832L27.525 30.5582C28.2259 29.8649 28.7823 29.0395 29.162 28.1298C29.5417 27.22 29.7372 26.244 29.7372 25.2582C29.7372 24.2724 29.5417 23.2964 29.162 22.3866C28.7823 21.4769 28.2259 20.6515 27.525 19.9582C27.2822 19.7307 27.0887 19.4558 26.9564 19.1505C26.8241 18.8451 26.7558 18.5159 26.7558 18.1832C26.7558 17.8504 26.8241 17.5212 26.9564 17.2159C27.0887 16.9106 27.2822 16.6357 27.525 16.4082Z" fill="#D9D9D9"/>
</svg>
