<svg width="60" height="59" viewBox="0 0 60 59" fill="none" xmlns="http://www.w3.org/2000/svg">
<path fill-rule="evenodd" clip-rule="evenodd" d="M59.9999 29.5547C59.9999 32.5137 55.1999 34.7235 54.2999 37.3828C53.3999 40.042 55.9499 44.8737 54.2999 47.0835C52.6499 49.2933 47.4 48.3944 45.075 50.0798C42.75 51.7653 42.1125 56.9715 39.3 57.9079C36.4875 58.8442 33.0375 54.9115 30.0375 54.9115C27.0375 54.9115 23.475 58.6569 20.775 57.9079C18.075 57.1588 17.325 51.7653 15 50.0798C12.675 48.3944 7.49999 49.4057 5.77499 47.0835C4.05 44.7613 6.63749 40.1918 5.77499 37.3828C4.91249 34.5737 0 32.5137 0 29.5547C0 26.5958 4.79999 24.386 5.69999 21.7267C6.59999 19.0675 4.05 14.2358 5.69999 12.026C7.34999 9.8162 12.6375 10.7151 15 9.02965C17.3625 7.3442 17.925 2.13801 20.7375 1.08929C23.55 0.0405587 27 4.19801 30 4.19801C33 4.19801 36.5625 0.452559 39.2625 1.20165C41.9625 1.95074 42.675 7.3442 45 9.02965C47.325 10.7151 52.4999 9.70383 54.2249 12.026C55.9499 14.3482 53.3624 18.9177 54.2249 21.7267C55.0874 24.5358 59.9999 26.5958 59.9999 29.5547Z" fill="#3BA55C"/>
<path d="M28.3189 43.2723L15.6626 33.7012L19.3851 28.5966L26.8299 34.3393L40.3795 16.3606L45.442 20.114L28.3189 43.2723Z" fill="white"/>
</svg>
