<svg width="50" height="51" viewBox="0 0 50 51" fill="none" xmlns="http://www.w3.org/2000/svg">
<path d="M25 0.887451C11.1925 0.887451 0 12.0799 0 25.8874C0 39.6948 11.1925 50.8875 25 50.8875C38.8075 50.8875 50.0001 39.6948 50.0001 25.8874C50.0001 12.0799 38.8049 0.887451 25 0.887451ZM36.7675 34.1199L33.2325 37.6548L25 29.4249L16.7675 37.6548L13.2325 34.1199L21.4625 25.8874L13.23 17.655L16.765 14.1225L24.9975 22.3549L33.23 14.1225L36.7649 17.655L28.535 25.8874L36.7675 34.1199Z" fill="#EB3D47"/>
<path d="M36.7675 34.1199L33.2325 37.6548L25 29.4249L16.7675 37.6548L13.2325 34.1199L21.4625 25.8874L13.23 17.655L16.765 14.1225L24.9975 22.3549L33.23 14.1225L36.7649 17.655L28.535 25.8874L36.7675 34.1199Z" fill="white"/>
</svg>
